<svg xmlns="http://www.w3.org/2000/svg" width="130.984" height="50" viewBox="0 0 130.984 50">
    <g>
        <path d="M1007.293 322.68c.167.031.241.175.335.278a20.28 20.28 0 0 1 4.09 7.175 20.832 20.832 0 0 1 .983 6.558c0 .216-.021.432-.031.637l-.031.637c.115.113.23.216.335.319a4.5 4.5 0 0 1 1.4 3.752 6.238 6.238 0 0 1-.785 2.58 4.641 4.641 0 0 1-3.117 2.375 4.963 4.963 0 0 1-.544.082.414.414 0 0 0-.324.206c-.042.072-.084.144-.125.206a21.64 21.64 0 0 1-13.179 9.426 22.715 22.715 0 0 1-6.914.658c-.387-.021-.764-.062-1.151-.093a.6.6 0 0 0-.418.113c-1.339.956-2.688 1.9-4.027 2.858-.293.216-.554.473-.837.709a2.282 2.282 0 0 1-.188.144c-.031-.041-.063-.072-.073-.093a28.9 28.9 0 0 0-1.36-4.019c-.23-.6-.471-1.192-.7-1.8a6.117 6.117 0 0 1-.418-1.974 4.358 4.358 0 0 1 .973-3.084 1.473 1.473 0 0 0 .115-.154c.01-.01 0-.031 0-.082-.167-.031-.345-.072-.513-.093a3.846 3.846 0 0 1-3.284-3.1 4.309 4.309 0 0 1 3.274-5.088 4.456 4.456 0 0 1 1.726-.1c.063.164-.084.216-.136.3a1.2 1.2 0 0 0-.241.833 1.076 1.076 0 0 0 .921.966 1.154 1.154 0 0 0 1.245-.535 1.8 1.8 0 0 0 .167-.411c.356-1.141.711-2.292 1.067-3.444l.031-.093c.1-.391.042-.535-.366-.658-1.538-.463-3.065-.925-4.6-1.388a1.128 1.128 0 0 0-.209-.031 1.375 1.375 0 0 0-.073.535 5.006 5.006 0 0 1-.293 1.347 3.893 3.893 0 0 1-3.63 2.58 5.047 5.047 0 0 1-1.245-.092 1.591 1.591 0 0 0-.314 0 1.429 1.429 0 0 0-.021.3 23.823 23.823 0 0 0 .889 5.88 17.4 17.4 0 0 0 1.548 3.731 13.169 13.169 0 0 0 1.8 2.488c.063.072.136.144.2.226-.094.093-.157 0-.209-.041a11.2 11.2 0 0 1-2.322-2.375 19.4 19.4 0 0 1-3.243-7.782 19.081 19.081 0 0 1-.324-2.889 1.089 1.089 0 0 0-.335-.781 3.83 3.83 0 0 1-1.13-2.961 3.913 3.913 0 0 1 .439-1.6 1.486 1.486 0 0 0 .1-.226c.01-.01 0-.031 0-.082-.209-.062-.408.041-.617.041-.23 0-.471.021-.7.01s-.429-.041-.638-.062a7.049 7.049 0 0 0-.167 2.148c.021.72.063 1.449.136 2.159a20.715 20.715 0 0 0 .335 2.138 21.533 21.533 0 0 0 .575 2.138 19.71 19.71 0 0 0 .774 2.025c.293.658.628 1.306.983 1.943s.764 1.223 1.172 1.871c-1.245-.884-3.441-4.451-4.362-7.021a20.59 20.59 0 0 1-1.13-8.152c-.1-.082-.188-.165-.272-.236a4.471 4.471 0 0 1-1.642-3.947 6.054 6.054 0 0 1 .858-2.7 4.586 4.586 0 0 1 2.845-2.2c.335-.092.69-.134 1.077-.206.052-.072.125-.164.2-.278a21.619 21.619 0 0 1 13.66-9.7 20.785 20.785 0 0 1 6.527-.555c.387.031.764.051 1.151.093a.539.539 0 0 0 .377-.1c1.4-.977 2.845-1.912 4.173-2.991.241-.2.481-.411.711-.607.042.021.084.031.094.051a26.96 26.96 0 0 0 1.088 3.331c.314.833.638 1.655.962 2.488a6.174 6.174 0 0 1 .408 2.611 4.049 4.049 0 0 1-.941 2.447 1.4 1.4 0 0 0-.136.206c-.01.01.01.031.021.062.23.041.481.082.711.134a3.9 3.9 0 0 1 3.159 3.66 4.388 4.388 0 0 1-4.456 4.626c-.188 0-.366-.01-.554-.021-.031 0-.052-.031-.084-.041-.042-.123.063-.175.115-.247a1.16 1.16 0 0 0 .261-.627 1.059 1.059 0 0 0-.774-1.172 1.157 1.157 0 0 0-1.381.514 1.786 1.786 0 0 0-.167.411c-.356 1.131-.7 2.262-1.056 3.392a.053.053 0 0 1-.021.041c-.146.493-.094.607.408.761 1.151.35 2.3.7 3.452 1.038.418.123.826.247 1.287.38.021-.1.052-.2.063-.278a6.205 6.205 0 0 1 .261-1.449 3.978 3.978 0 0 1 4.4-2.734c.335.041.659.1 1.015.154a1.222 1.222 0 0 0 .052-.236 21.354 21.354 0 0 0-1.883-8.81 13.175 13.175 0 0 0-2.406-3.608l-.157-.185c.094-.092.136 0 .178.031a11.651 11.651 0 0 1 2.406 2.436 19.29 19.29 0 0 1 3.159 7.4 20.077 20.077 0 0 1 .408 3.618.91.91 0 0 0 .251.668 3.915 3.915 0 0 1 1 2.313 3.82 3.82 0 0 1-.345 1.922c-.063.144-.136.3-.2.432.063.123.157.072.23.072a5.921 5.921 0 0 1 1.9.051.835.835 0 0 0 .136-.565c.021-.678.052-1.347.042-2.025a20.768 20.768 0 0 0-3.64-11.513c-.115-.093-.251-.2-.23-.36zm-7.1 6.949a1.955 1.955 0 0 0 .251-.113 3.221 3.221 0 0 0 1.485-3.4 2.932 2.932 0 0 0-2.218-2.251 4.488 4.488 0 0 0-2.333.021 2.545 2.545 0 0 1-.387.072.191.191 0 0 1-.157-.288 1.793 1.793 0 0 1 .241-.247c.293-.267.617-.514.889-.792a4.236 4.236 0 0 0 1.161-3.814 10.525 10.525 0 0 0-.69-2.313c-.3-.781-.617-1.562-.931-2.344-.01-.031-.042-.051-.073-.082a.271.271 0 0 0-.126.051c-.628.432-1.255.874-1.883 1.306-.4.278-.795.545-1.182.833a6.4 6.4 0 0 0-1.3 1.3 4.127 4.127 0 0 0-.826 3.022 6.589 6.589 0 0 0 .293 1.347c.031.113.073.216.094.329a.22.22 0 0 1-.115.247.2.2 0 0 1-.272-.041c-.1-.1-.188-.226-.293-.339a3.836 3.836 0 0 0-3.253-1.347 2.654 2.654 0 0 0-1.736.8 3.332 3.332 0 0 0-.659 3.66 1.92 1.92 0 0 0 .146.206c.115-.144.209-.257.3-.37a1.872 1.872 0 0 1 1.119-.617 2.519 2.519 0 0 1 2.542 1.038 2.11 2.11 0 0 1 .356.864 2.512 2.512 0 0 1-.1 1.213c-.366 1.162-.722 2.323-1.088 3.485a5.885 5.885 0 0 1-.2.606 1.585 1.585 0 0 1-1.1 1 1.686 1.686 0 0 1-.983-.01c-.6-.175-1.182-.35-1.778-.535-1.454-.432-2.908-.874-4.362-1.316-.429-.134-.46-.278-.136-.555a3.673 3.673 0 0 0 1.255-2.6 2.4 2.4 0 0 0-.743-1.974 3.327 3.327 0 0 0-2.228-1 2.941 2.941 0 0 0-3.044 2.22 5.34 5.34 0 0 0-.021 1.912 4.634 4.634 0 0 1 .052.535.268.268 0 0 1-.136.185.24.24 0 0 1-.22-.051 2.249 2.249 0 0 1-.23-.319 4.9 4.9 0 0 0-2.081-1.809 3.444 3.444 0 0 0-1.956-.3 3.5 3.5 0 0 0-2.353 1.46 3.929 3.929 0 0 0-.753 2.889 3.316 3.316 0 0 0 2.615 2.909 4.913 4.913 0 0 0 2.95-.278c.126-.051.241-.113.366-.154a.236.236 0 0 1 .3.093.23.23 0 0 1-.042.278c-.084.1-.188.2-.272.288a5.326 5.326 0 0 0-1.056 1.491 2.665 2.665 0 0 0-.209 1.727 3.1 3.1 0 0 0 3.148 2.405 2.665 2.665 0 0 0 2.563-1.583 3.566 3.566 0 0 0 .293-2.539 1.078 1.078 0 0 1-.042-.2c-.021-.206.094-.308.3-.267a3.168 3.168 0 0 1 .335.093c1.935.586 3.87 1.162 5.805 1.747a1.829 1.829 0 0 1 .335.113 1.646 1.646 0 0 1 .983 1.11 1.864 1.864 0 0 1-.063 1.069c-.4 1.275-.784 2.549-1.192 3.814a3.256 3.256 0 0 1-.293.678 2.188 2.188 0 0 1-1.559 1.049 2.558 2.558 0 0 1-1.046-.031 2.133 2.133 0 0 1-1.789-2.035c0-.062-.021-.123-.031-.216a2.633 2.633 0 0 0-.293.134 3.2 3.2 0 0 0-1.423 3.516 2.968 2.968 0 0 0 2.312 2.159 4.156 4.156 0 0 0 2.186-.062 1.444 1.444 0 0 1 .335-.082.313.313 0 0 1 .209.1.283.283 0 0 1 0 .226.79.79 0 0 1-.209.206c-.251.216-.513.421-.753.648a4.314 4.314 0 0 0-1.287 4.1 13 13 0 0 0 .784 2.488c.251.637.513 1.285.764 1.922a1.5 1.5 0 0 0 .1.185c.9-.606 1.768-1.182 2.636-1.768.324-.226.638-.473.941-.73a5.43 5.43 0 0 0 1.035-1.141 4.079 4.079 0 0 0 .743-2.416 6.245 6.245 0 0 0-.293-1.748c-.042-.123-.084-.247-.115-.38a.233.233 0 0 1 .1-.257.223.223 0 0 1 .272.031c.084.082.157.175.23.257a3.966 3.966 0 0 0 2.51 1.408 2.831 2.831 0 0 0 2.5-.75 3.3 3.3 0 0 0 .7-3.69 1.124 1.124 0 0 0-.146-.216l-.241.288a2.007 2.007 0 0 1-1.768.75 2.377 2.377 0 0 1-2.249-3.084c.084-.288.178-.565.262-.843.335-1.069.659-2.138 1-3.207a1.636 1.636 0 0 1 1.454-1.182 1.838 1.838 0 0 1 .784.1c.6.175 1.182.36 1.778.535 1.37.411 2.751.822 4.121 1.244a1.8 1.8 0 0 1 .408.175.149.149 0 0 1 .042.216 1.35 1.35 0 0 1-.167.185 3.575 3.575 0 0 0-1.245 2.3 2.473 2.473 0 0 0 .523 2.087 3.254 3.254 0 0 0 2.835 1.192 2.9 2.9 0 0 0 2.636-2.272 4.693 4.693 0 0 0 .031-1.665c-.031-.226-.073-.452-.094-.678a.319.319 0 0 1 .115-.2.2.2 0 0 1 .272.041 3.631 3.631 0 0 1 .22.329 4.9 4.9 0 0 0 1.9 1.717 3.435 3.435 0 0 0 4.268-.833 3.921 3.921 0 0 0 .973-3.022 3.368 3.368 0 0 0-2.991-3.1 5.341 5.341 0 0 0-2.6.35c-.094.041-.178.092-.272.123a.617.617 0 0 1-.188.041.215.215 0 0 1-.2-.308 2.978 2.978 0 0 1 .293-.339 5.293 5.293 0 0 0 1.1-1.573 2.609 2.609 0 0 0 .209-1.542 3.1 3.1 0 0 0-2.835-2.529 2.716 2.716 0 0 0-2.971 1.717 3.524 3.524 0 0 0-.251 2.313c.136.586.073.637-.523.463-.847-.257-1.695-.514-2.542-.761-1.13-.339-2.27-.7-3.41-1.018a1.675 1.675 0 0 1-1.182-2.169c.115-.329.209-.658.314-.987.3-.987.607-1.984.92-2.971a2.3 2.3 0 0 1 2.5-1.706 2.219 2.219 0 0 1 2.186 2.1 1.363 1.363 0 0 1 .108.248zm-1.793 13.044a3.506 3.506 0 0 0-.377-.134c-1.454-.442-2.908-.874-4.362-1.316-.533-.154-.638-.1-.805.411-.366 1.162-.722 2.323-1.077 3.485a1.224 1.224 0 0 0-.073.38 1.147 1.147 0 0 0 1.015 1.213 1.1 1.1 0 0 0 1.245-.822 2.449 2.449 0 0 0 .042-.483c0-.072-.01-.144-.01-.236a4.172 4.172 0 0 1 1.778 1.449 4.273 4.273 0 0 1-.889 5.952 3.788 3.788 0 0 1-2.322.812 4.213 4.213 0 0 1-1.841-.4c-.146-.062-.272-.185-.45-.164a.173.173 0 0 0-.021.051 1.94 1.94 0 0 0 .01.247 3.746 3.746 0 0 1-.209 1.7 5.28 5.28 0 0 1-.879 1.542c-.073.092-.147.206-.262.38.366-.072.638-.113.91-.175a15.433 15.433 0 0 0 4.906-2.087 21.687 21.687 0 0 0 5.439-4.986 1.911 1.911 0 0 0 .157-.236c-.157-.082-.3-.164-.45-.236a4.622 4.622 0 0 1-1.36-1 3.676 3.676 0 0 1-.983-3.094 4.96 4.96 0 0 1 .607-1.758c.061-.145.148-.289.261-.495zm-15.773-12.726c.1.041.178.082.251.113 1.506.452 3 .9 4.508 1.357a2.064 2.064 0 0 0 .24.062.364.364 0 0 0 .439-.236 2.882 2.882 0 0 0 .094-.278c.094-.319.2-.627.293-.946.261-.853.523-1.7.795-2.539a1.233 1.233 0 0 0 0-.822 1.213 1.213 0 0 0-1.287-.74 1.109 1.109 0 0 0-.952 1.049c-.01.144 0 .288 0 .432a.244.244 0 0 1-.115.01 1.427 1.427 0 0 1-.22-.1 4.613 4.613 0 0 1-1.8-1.933 4.278 4.278 0 0 1 1.527-5.489 3.792 3.792 0 0 1 2.824-.576 4.865 4.865 0 0 1 1.318.452c.073.031.146.093.241 0 0-.051-.01-.113-.01-.175a3.964 3.964 0 0 1 .293-1.974 5.4 5.4 0 0 1 .952-1.5c.052-.062.178-.113.1-.267-.167.031-.356.051-.523.082a15.279 15.279 0 0 0-4.665 1.871 21.612 21.612 0 0 0-5.983 5.407c-.052.062-.084.134-.146.226.157.082.3.164.45.236a4.42 4.42 0 0 1 1.057.74 3.72 3.72 0 0 1 1.213 3.156 4.805 4.805 0 0 1-.648 1.953q-.119.198-.244.429zm-7.709-3l.042-.329a3.991 3.991 0 0 1 3.389-3.475c.178-.031.356-.062.513-.092.471-.565.91-1.131 1.391-1.655s.962-1.049 1.485-1.532c.533-.5 1.077-.977 1.653-1.429s1.151-.853 1.747-1.234 1.224-.72 1.872-1.09c-1.6.062-5.638 1.9-7.97 3.608-2.27 1.665-5.188 4.842-5.648 6.168.251.154.513.308.753.473.263.164.482.359.775.586zm32.791 19.85c-.178-.1-.366-.206-.544-.319s-.356-.247-.533-.37a2.622 2.622 0 0 0-.533-.391c-.021.123-.031.216-.052.308a2.777 2.777 0 0 0-.052.288 3.845 3.845 0 0 1-1.987 2.7 3.658 3.658 0 0 1-1.464.473.587.587 0 0 0-.46.257c-.136.185-.282.37-.429.545a22.854 22.854 0 0 1-7.249 5.972c-.084.041-.167.1-.251.154a21.125 21.125 0 0 0 8.3-3.845c2.119-1.579 4.702-4.427 5.256-5.769z" transform="translate(-148.856 -311.3) translate(-734.552)"/>
        <path d="M764.332 463.375a8 8 0 0 1-3.41-.764 6.188 6.188 0 0 1-3.5-4.383 5.688 5.688 0 0 1 .6-4.027 6.149 6.149 0 0 1 3.211-2.908 8.19 8.19 0 0 1 6.307 0 6.175 6.175 0 0 1 2.6 1.987 6.01 6.01 0 0 1-.764 8.284 6.75 6.75 0 0 1-3.494 1.653c-.515.083-1.038.106-1.55.158zm.052-10.146a10.718 10.718 0 0 0-1.182.167 3.4 3.4 0 0 0-2.583 2.469 4.339 4.339 0 0 0-.126 1.642 3.47 3.47 0 0 0 2.688 3.127 4.826 4.826 0 0 0 2.082.073 3.471 3.471 0 0 0 2.908-2.751 4.128 4.128 0 0 0 .01-1.789 3.389 3.389 0 0 0-2.364-2.678 4.7 4.7 0 0 0-1.433-.26z" transform="translate(-148.856 -311.3) translate(-546.011 -125.12)"/>
        <path d="M420.556 459.885v4.915a2.163 2.163 0 0 1-.314.052h-2.458c-.084 0-.167-.01-.272-.021a1.976 1.976 0 0 1-.052-.345c-.01-.523 0-1.036 0-1.559v-9.78a2.094 2.094 0 0 1 .042-.617c.126-.01.23-.031.345-.031h5.272a4.25 4.25 0 0 1 1.893.429 3.368 3.368 0 0 1 1.987 2.7 2.954 2.954 0 0 1-1.161 2.876 5.675 5.675 0 0 1-.586.387 2.607 2.607 0 0 0-.272.188 4.046 4.046 0 0 1 1.506 1.872c.575 1.224 1.14 2.458 1.7 3.682a.729.729 0 0 1 .031.125c-.01.031-.01.052-.021.063a.063.063 0 0 1-.042.01c-.136.01-.262.01-.4.01h-2.814c-.073-.126-.146-.241-.2-.356-.293-.659-.586-1.318-.879-1.966-.22-.471-.429-.941-.69-1.391a4.011 4.011 0 0 0-.6-.805 1.436 1.436 0 0 0-1.161-.492 6.628 6.628 0 0 0-.854.054zm.031-2.374a.646.646 0 0 0 .167.042h1.653a1.7 1.7 0 0 0 .774-.2 1.178 1.178 0 0 0 .659-.889 1.3 1.3 0 0 0-1.14-1.632 1.419 1.419 0 0 0-.3-.031c-.554-.01-1.1-.01-1.653-.01a.676.676 0 0 0-.136.042 20.271 20.271 0 0 0-.023 2.677z" transform="translate(-148.856 -311.3) translate(-241.032 -126.767)"/>
        <path d="M259.266 452.56c1.192-.01 2.353 0 3.5 0a.969.969 0 0 1 .293.492q1.961 4.393 3.912 8.8c.387.868.774 1.736 1.161 2.615.052.115.094.241.136.345-.021.042-.021.063-.031.073a.08.08 0 0 1-.042.021c-.952.01-1.9.01-2.855.01-.094 0-.2-.01-.324-.021-.335-.795-.669-1.6-1.015-2.4a10.055 10.055 0 0 0-1.37-.031c-.471-.01-.941 0-1.4 0h-2.72c-.063.146-.126.261-.178.387-.2.533-.4 1.067-.607 1.59q-.094.235-.188.439a26.746 26.746 0 0 1-3.18-.01.685.685 0 0 1 0-.146c1.642-4.057 3.266-8.105 4.908-12.164zm1.81 3.033c-.586 1.5-1.13 2.981-1.684 4.456a1.169 1.169 0 0 0-.021.209 2.62 2.62 0 0 0 .262.021c1.1 0 2.207 0 3.305-.01.021 0 .052-.031.084-.052a.613.613 0 0 0-.021-.136c-.6-1.443-1.2-2.9-1.8-4.341-.021-.031-.063-.073-.126-.146z" transform="translate(-148.856 -311.3) translate(-94.465 -126.817)"/>
        <path d="M151.935 459.847v3.263c0 .533.01 1.067-.01 1.538-.052.063-.063.084-.084.084a.063.063 0 0 1-.042.01c-.868.01-1.736.01-2.6.01-.084 0-.167-.01-.272-.021a2.732 2.732 0 0 1-.063-.282c-.01-.115 0-.23 0-.356v-11.034c0-.2.01-.4.021-.617a2.005 2.005 0 0 1 .314-.042h5.314a4.478 4.478 0 0 1 1.433.241 3.633 3.633 0 0 1-.2 6.977 5.18 5.18 0 0 1-1.391.178H152.5a4.019 4.019 0 0 1-.565.051zM152 457.5a.52.52 0 0 0 .136.042c.554 0 1.1.01 1.653-.01a2.532 2.532 0 0 0 .68-.136 1.1 1.1 0 0 0 .805-1.036 3.151 3.151 0 0 0-.01-.544 1.029 1.029 0 0 0-.648-.879 1.882 1.882 0 0 0-.523-.157 9.51 9.51 0 0 0-2.04-.042c-.01 0-.021.021-.042.031A13.991 13.991 0 0 0 152 457.5z" transform="translate(-148.856 -311.3) translate(0 -126.677)"/>
        <path d="M550.235 455.018h-4.351a2.182 2.182 0 0 0-.052.314c-.01.2 0 .4 0 .607v8.577c0 .178-.01.366-.01.565a8.249 8.249 0 0 1-1.517.042c-.492.01-.994.021-1.485-.01a1.251 1.251 0 0 1-.063-.575v-8.922c0-.167-.01-.335-.01-.471-.146-.146-.3-.1-.45-.1h-3.922a.668.668 0 0 1-.073-.2v-1.851a.44.44 0 0 1 .031-.126c.021-.021.031-.042.052-.042a.078.078 0 0 1 .052-.01c3.849 0 7.688-.01 11.537-.01a1.27 1.27 0 0 1 .2.01.189.189 0 0 1 .094.042 10.834 10.834 0 0 1-.033 2.16z" transform="translate(-148.856 -311.3) translate(-349.481 -127.036)"/>
        <path d="M741.609 656.6c-.167-.031-.23.1-.314.209-.387.439-.753.9-1.151 1.318a5.463 5.463 0 0 1-1.475 1.109 2.759 2.759 0 0 1-2 .209 2.486 2.486 0 0 1-1.893-2.374 4.774 4.774 0 0 1 .146-1.443c.22-.889.46-1.778.69-2.667.167-.649.335-1.3.492-1.945a6.625 6.625 0 0 0 .126-.795.9.9 0 0 0-.492-.962 1.064 1.064 0 0 0-1.1.052 1.023 1.023 0 0 0-.366.523 2.339 2.339 0 0 1-.146.377.412.412 0 0 1-.513.2.492.492 0 0 1-.356-.534.994.994 0 0 1 .052-.188 2.962 2.962 0 0 1 .157-.314 3.556 3.556 0 0 1 2.416-1.558 1.5 1.5 0 0 1 1.018.183 2.378 2.378 0 0 1 1.213 2.489c-.147.669-.324 1.328-.5 2-.3 1.109-.607 2.228-.805 3.358a3.149 3.149 0 0 0-.042.7A1.38 1.38 0 0 0 738 657.9a1.974 1.974 0 0 0 1.349-.272 4.221 4.221 0 0 0 1.035-.941 7.321 7.321 0 0 0 1.287-2.427 15.949 15.949 0 0 0 .617-2.887 25.082 25.082 0 0 0 .2-2.8c0-.4.094-.5.481-.575s.795-.136 1.192-.2a.738.738 0 0 1 .146-.01.519.519 0 0 1 .544.575 2.317 2.317 0 0 1-.084.387c-.241 1.088-.513 2.176-.711 3.284-.209 1.13-.387 2.27-.523 3.42a15.608 15.608 0 0 0-.031 1.851 1.208 1.208 0 0 0 .073.387.777.777 0 0 0 .91.523 1.26 1.26 0 0 0 .617-.324 2.294 2.294 0 0 0 .68-1.088c.042-.125.063-.261.115-.377a.435.435 0 0 1 .774-.073.51.51 0 0 1 .094.471 2.723 2.723 0 0 1-.439.952 4.193 4.193 0 0 1-2.469 1.694c-.125.031-.262.063-.387.084a1.529 1.529 0 0 1-1.789-1.454c-.01-.335.021-.669.031-1a.7.7 0 0 0-.103-.5z" transform="translate(-148.856 -311.3) translate(-524.447 -302.169)"/>
        <path d="M626.921 650.814a10.621 10.621 0 0 1-1.109 4.78 5.474 5.474 0 0 1-1.538 1.883 5.048 5.048 0 0 1-3.964 1.025 3.189 3.189 0 0 1-1.715-.879 3.977 3.977 0 0 1-1.3-2.95 10.1 10.1 0 0 1 1.464-5.586 5.163 5.163 0 0 1 3.745-2.427 4.852 4.852 0 0 1 1.694 0 2.99 2.99 0 0 1 1.925 1.255 3.909 3.909 0 0 1 .68 1.7c.066.467.097.927.118 1.199zm-7.552 3c0 .335-.021.669.01 1a11.461 11.461 0 0 0 .2 1.339 1.706 1.706 0 0 0 1.161 1.287 3.2 3.2 0 0 0 1.13.188 1.789 1.789 0 0 0 1.538-.805 6.814 6.814 0 0 0 .805-1.548 9.759 9.759 0 0 0 .575-2.793 8.675 8.675 0 0 0-.188-2.646 4.483 4.483 0 0 0-.575-1.433 1.693 1.693 0 0 0-.994-.722 2.025 2.025 0 0 0-1.935.376 2.491 2.491 0 0 0-.638.764 8.189 8.189 0 0 0-.377.816 10.925 10.925 0 0 0-.712 4.179z" transform="translate(-148.856 -311.3) translate(-420.354 -301.093)"/>
        <path d="M882.844 611.633c0 .366-.021.732 0 1.1a1.684 1.684 0 0 0 1.695 1.527 1.371 1.371 0 0 0 .753-.241 2.131 2.131 0 0 0 .722-.889c.115-.261.188-.534.282-.806a1.121 1.121 0 0 0 .042-.2c.063-.24.178-.366.345-.366a.475.475 0 0 1 .439.282 1.059 1.059 0 0 1 .084.439 2.065 2.065 0 0 1-.387 1.171 3.509 3.509 0 0 1-1.056 1.056 4.51 4.51 0 0 1-2.709.753 2.1 2.1 0 0 1-2-1.548 4.832 4.832 0 0 1-.178-1.935c.167-1.464.345-2.918.523-4.383.094-.774.188-1.558.293-2.332.042-.345-.1-.523-.471-.544-.387-.021-.764-.031-1.151-.052a2.008 2.008 0 0 1-.251-.01.263.263 0 0 1-.241-.272 2.239 2.239 0 0 1 .115-.586.425.425 0 0 1 .481-.282c.282.021.565.052.847.073l.3.031c.418.031.554-.063.628-.46.073-.377.125-.753.188-1.14q.063-.424.094-.847a3.542 3.542 0 0 0-.1-1.287.54.54 0 0 1 .356-.763c.492-.209.994-.387 1.5-.575a.6.6 0 0 1 .146-.042.322.322 0 0 1 .418.356 1.407 1.407 0 0 1-.042.293c-.2 1.13-.408 2.27-.617 3.4-.042.261-.084.523-.126.795-.063.4.031.5.439.544.115.01.23.01.356.01.554 0 1.109 0 1.653-.01a5.788 5.788 0 0 0 .6-.073.238.238 0 0 1 .272.23 1.548 1.548 0 0 1-.366.962.434.434 0 0 1-.366.115c-.335-.021-.669-.042-1-.073l-1.349-.126c-.314-.021-.408.052-.492.366a2.081 2.081 0 0 0-.042.251c-.115.973-.251 1.956-.356 2.929a19.038 19.038 0 0 0-.271 3.159z" transform="translate(-148.856 -311.3) translate(-655.687 -258.031)"/>
        <path d="M690.285 452.449a23.7 23.7 0 0 1 2.991-.01 2.109 2.109 0 0 1 .042.272c.01.188 0 .366 0 .554v10.826c0 .2-.01.4-.01.586a16.916 16.916 0 0 1-3 .052 1.064 1.064 0 0 1-.063-.262c-.01-.115 0-.23 0-.345v-11.066a1.651 1.651 0 0 1 .04-.607z" transform="translate(-148.856 -311.3) translate(-485.752 -126.674)"/>
        <path d="M414.659 660.157c-.22-.031-.659-.052-1.077-.147a2.879 2.879 0 0 1-1.527-.91 2.007 2.007 0 0 1-.554-1.36.78.78 0 0 1 .565-.795 1.015 1.015 0 0 1 1.339.826 2.836 2.836 0 0 1 .01.3 1.139 1.139 0 0 0 .753 1.036 3.054 3.054 0 0 0 1.674.157 3.193 3.193 0 0 0 .764-.22 1.463 1.463 0 0 0 .847-1.9 1.712 1.712 0 0 0-.523-.847c-.3-.282-.628-.554-.952-.816-.617-.492-1.234-.962-1.851-1.454a4.294 4.294 0 0 1-.962-1.077 2.593 2.593 0 0 1 .167-3.169 3.643 3.643 0 0 1 2.259-1.3 7.147 7.147 0 0 1 1.5-.1 2.357 2.357 0 0 1 .931.2 1.321 1.321 0 0 1 .743.774.917.917 0 0 1-.941 1.234.736.736 0 0 1-.492-.22 2.887 2.887 0 0 1-.324-.387 1.28 1.28 0 0 0-.68-.492 2.309 2.309 0 0 0-1.192-.094 1.261 1.261 0 0 0-.669.324 1.031 1.031 0 0 0-.209 1.287 3.546 3.546 0 0 0 .387.586 5.839 5.839 0 0 0 1.155 1.107c.513.377 1.025.743 1.538 1.13a7.3 7.3 0 0 1 1.088.962 2.786 2.786 0 0 1 .69 1.266 3.131 3.131 0 0 1-.753 2.793 3.716 3.716 0 0 1-2.061 1.161 7.16 7.16 0 0 1-1.643.145z" transform="translate(-148.856 -311.3) translate(-235.675 -302.696)"/>
        <path d="M516.556 659.775a3.654 3.654 0 0 1-3.713-3.378 7.024 7.024 0 0 1 .251-2.678 9.725 9.725 0 0 1 1.851-3.63 6.286 6.286 0 0 1 1.6-1.423 4.865 4.865 0 0 1 1.966-.69 2.878 2.878 0 0 1 .9.052 1.73 1.73 0 0 1 1.349 1.7 1.254 1.254 0 0 1-.722 1.077.952.952 0 0 1-1.182-.241 3.785 3.785 0 0 1-.366-.6c-.063-.115-.094-.251-.157-.366a.637.637 0 0 0-.879-.335 3.084 3.084 0 0 0-.649.377 3.713 3.713 0 0 0-1.046 1.266 7.287 7.287 0 0 0-.753 2.113 9.3 9.3 0 0 0-.167 3.044 3.284 3.284 0 0 0 .68 1.59 1.94 1.94 0 0 0 .879.649 3.372 3.372 0 0 0 4.058-1.391 3.155 3.155 0 0 1 .324-.5.346.346 0 0 1 .439-.136.391.391 0 0 1 .251.4 1.309 1.309 0 0 1-.146.523 3.989 3.989 0 0 1-1.778 1.841 5.762 5.762 0 0 1-1.8.586c-.395.075-.792.109-1.19.15z" transform="translate(-148.856 -311.3) translate(-326.579 -302.324)"/>
        <path d="M1353.32 420.623c-.063-.042-.115-.084-.22-.157.178-.021.22.042.22.157z" transform="translate(-148.856 -311.3) translate(-1080.579 -97.941)"/>
    </g>
</svg>
